<mxfile host="app.diagrams.net" agent="Mozilla/5.0 (Windows NT 10.0; Win64; x64) AppleWebKit/537.36 (KHTML, like Gecko) Chrome/126.0.0.0 Safari/537.36" version="24.8.3">
  <diagram name="Page-1" id="3E2Mn6jG2lz_rTR2BD8z">
    <mxGraphModel dx="1050" dy="522" grid="1" gridSize="10" guides="1" tooltips="1" connect="1" arrows="1" fold="1" page="1" pageScale="1" pageWidth="850" pageHeight="1100" math="0" shadow="0">
      <root>
        <mxCell id="0" />
        <mxCell id="1" parent="0" />
        <mxCell id="e3Oi-DyHzb2r_Gkh5HOm-1" value="" style="rounded=0;whiteSpace=wrap;html=1;fillColor=#dae8fc;strokeColor=#6c8ebf;align=left;" vertex="1" parent="1">
          <mxGeometry x="140" y="130" width="520" height="470" as="geometry" />
        </mxCell>
        <mxCell id="e3Oi-DyHzb2r_Gkh5HOm-2" value="&lt;h1 style=&quot;margin-top: 0px;&quot;&gt;GET Request&lt;/h1&gt;&lt;div&gt;GET /my-world.htm HTTP/1.1&lt;/div&gt;&lt;div&gt;&lt;br&gt;&lt;/div&gt;&lt;div&gt;User-Agent: Mozilla/4.0&amp;nbsp;&lt;/div&gt;&lt;div&gt;Host: www.hello-world.com&lt;/div&gt;&lt;div&gt;Accept-Language: en-us&lt;/div&gt;&lt;div&gt;Accept-Encoding: gzip, deflate&lt;/div&gt;&lt;div&gt;Connection: Keep-Alive&lt;/div&gt;" style="text;html=1;whiteSpace=wrap;overflow=hidden;rounded=0;" vertex="1" parent="1">
          <mxGeometry x="140" y="130" width="520" height="200" as="geometry" />
        </mxCell>
        <mxCell id="e3Oi-DyHzb2r_Gkh5HOm-3" value="&lt;h1 style=&quot;margin-top: 0px;&quot;&gt;POST Request&lt;/h1&gt;&lt;div&gt;POST /my-world.htm HTTP/1.1&lt;/div&gt;&lt;div&gt;&lt;br&gt;&lt;/div&gt;&lt;div&gt;User-Agent: Mozilla/4.0 (compatible; MSIE5.01; Windows NT)&lt;/div&gt;&lt;div&gt;Host: www.hello-world.com&lt;/div&gt;&lt;div&gt;Accept-Language: en-us&lt;/div&gt;&lt;div&gt;Accept-Encoding: gzip, deflate&lt;/div&gt;&lt;div&gt;Connection: Keep-Alive&lt;/div&gt;" style="text;html=1;whiteSpace=wrap;overflow=hidden;rounded=0;" vertex="1" parent="1">
          <mxGeometry x="140" y="330" width="520" height="240" as="geometry" />
        </mxCell>
      </root>
    </mxGraphModel>
  </diagram>
</mxfile>
